<?xml version="1.0" encoding="UTF-8" standalone="no"?>
<!DOCTYPE svg PUBLIC "-//W3C//DTD SVG 1.1//EN"
 "http://www.w3.org/Graphics/SVG/1.1/DTD/svg11.dtd">
<!-- Generated by graphviz version 2.43.0 (0)
 -->
<!-- Title: lexer_fsm Pages: 1 -->
<svg width="3412pt" height="8195pt"
 viewBox="0.00 0.00 818.85 1966.74" xmlns="http://www.w3.org/2000/svg" xmlns:xlink="http://www.w3.org/1999/xlink">
<g id="graph0" class="graph" transform="scale(0.24 0.24) rotate(0) translate(4 1962.74)">
<title>lexer_fsm</title>
<polygon fill="white" stroke="transparent" points="-4,4 -4,-1962.74 814.85,-1962.74 814.85,4 -4,4"/>
<!-- NAMESPACE -->
<g id="node1" class="node">
<title>NAMESPACE</title>
<ellipse fill="none" stroke="black" cx="516.17" cy="-1523.54" rx="65.78" ry="65.78"/>
<ellipse fill="none" stroke="black" cx="516.17" cy="-1523.54" rx="69.79" ry="69.79"/>
<text text-anchor="middle" x="516.17" y="-1519.84" font-family="Helvetica,Arial,sans-serif" font-size="14.00">NAMESPACE</text>
</g>
<!-- COLON -->
<g id="node2" class="node">
<title>COLON</title>
<ellipse fill="none" stroke="black" cx="516.17" cy="-1388.54" rx="42.8" ry="42.8"/>
<ellipse fill="none" stroke="black" cx="516.17" cy="-1388.54" rx="46.79" ry="46.79"/>
<text text-anchor="middle" x="516.17" y="-1384.84" font-family="Helvetica,Arial,sans-serif" font-size="14.00">COLON</text>
</g>
<!-- RANGE -->
<g id="node3" class="node">
<title>RANGE</title>
<ellipse fill="none" stroke="black" cx="516.17" cy="-1276.54" rx="42.8" ry="42.8"/>
<ellipse fill="none" stroke="black" cx="516.17" cy="-1276.54" rx="46.79" ry="46.79"/>
<text text-anchor="middle" x="516.17" y="-1272.84" font-family="Helvetica,Arial,sans-serif" font-size="14.00">RANGE</text>
</g>
<!-- DOT -->
<g id="node4" class="node">
<title>DOT</title>
<ellipse fill="none" stroke="black" cx="516.17" cy="-1178.54" rx="29.47" ry="29.47"/>
<ellipse fill="none" stroke="black" cx="516.17" cy="-1178.54" rx="33.5" ry="33.5"/>
<text text-anchor="middle" x="516.17" y="-1174.84" font-family="Helvetica,Arial,sans-serif" font-size="14.00">DOT</text>
</g>
<!-- GE -->
<g id="node5" class="node">
<title>GE</title>
<ellipse fill="none" stroke="black" cx="516.17" cy="-1099.54" rx="24.09" ry="24.09"/>
<ellipse fill="none" stroke="black" cx="516.17" cy="-1099.54" rx="28.1" ry="28.1"/>
<text text-anchor="middle" x="516.17" y="-1095.84" font-family="Helvetica,Arial,sans-serif" font-size="14.00">GE</text>
</g>
<!-- GT -->
<g id="node6" class="node">
<title>GT</title>
<ellipse fill="none" stroke="black" cx="516.17" cy="-1026.54" rx="22.96" ry="22.96"/>
<ellipse fill="none" stroke="black" cx="516.17" cy="-1026.54" rx="27" ry="27"/>
<text text-anchor="middle" x="516.17" y="-1022.84" font-family="Helvetica,Arial,sans-serif" font-size="14.00">GT</text>
</g>
<!-- LE -->
<g id="node7" class="node">
<title>LE</title>
<ellipse fill="none" stroke="black" cx="516.17" cy="-956.54" rx="21.4" ry="21.4"/>
<ellipse fill="none" stroke="black" cx="516.17" cy="-956.54" rx="25.4" ry="25.4"/>
<text text-anchor="middle" x="516.17" y="-952.84" font-family="Helvetica,Arial,sans-serif" font-size="14.00">LE</text>
</g>
<!-- LT -->
<g id="node8" class="node">
<title>LT</title>
<ellipse fill="none" stroke="black" cx="516.17" cy="-888.54" rx="20.27" ry="20.27"/>
<ellipse fill="none" stroke="black" cx="516.17" cy="-888.54" rx="24.3" ry="24.3"/>
<text text-anchor="middle" x="516.17" y="-884.84" font-family="Helvetica,Arial,sans-serif" font-size="14.00">LT</text>
</g>
<!-- EQ -->
<g id="node9" class="node">
<title>EQ</title>
<ellipse fill="none" stroke="black" cx="516.17" cy="-818.54" rx="24.09" ry="24.09"/>
<ellipse fill="none" stroke="black" cx="516.17" cy="-818.54" rx="28.1" ry="28.1"/>
<text text-anchor="middle" x="516.17" y="-814.84" font-family="Helvetica,Arial,sans-serif" font-size="14.00">EQ</text>
</g>
<!-- ASSIGN -->
<g id="node10" class="node">
<title>ASSIGN</title>
<ellipse fill="none" stroke="black" cx="516.17" cy="-724.54" rx="44.38" ry="44.38"/>
<ellipse fill="none" stroke="black" cx="516.17" cy="-724.54" rx="48.39" ry="48.39"/>
<text text-anchor="middle" x="516.17" y="-720.84" font-family="Helvetica,Arial,sans-serif" font-size="14.00">ASSIGN</text>
</g>
<!-- NE -->
<g id="node11" class="node">
<title>NE</title>
<ellipse fill="none" stroke="black" cx="516.17" cy="-631.54" rx="22.96" ry="22.96"/>
<ellipse fill="none" stroke="black" cx="516.17" cy="-631.54" rx="27" ry="27"/>
<text text-anchor="middle" x="516.17" y="-627.84" font-family="Helvetica,Arial,sans-serif" font-size="14.00">NE</text>
</g>
<!-- INVALID -->
<g id="node12" class="node">
<title>INVALID</title>
<ellipse fill="none" stroke="black" cx="516.17" cy="-538.54" rx="44.38" ry="44.38"/>
<ellipse fill="none" stroke="black" cx="516.17" cy="-538.54" rx="48.39" ry="48.39"/>
<text text-anchor="middle" x="516.17" y="-534.84" font-family="Helvetica,Arial,sans-serif" font-size="14.00">INVALID</text>
</g>
<!-- COMMENT -->
<g id="node13" class="node">
<title>COMMENT</title>
<ellipse fill="none" stroke="black" cx="516.17" cy="-410.54" rx="57.7" ry="57.7"/>
<ellipse fill="none" stroke="black" cx="516.17" cy="-410.54" rx="61.69" ry="61.69"/>
<text text-anchor="middle" x="516.17" y="-406.84" font-family="Helvetica,Arial,sans-serif" font-size="14.00">COMMENT</text>
</g>
<!-- DIV -->
<g id="node14" class="node">
<title>DIV</title>
<ellipse fill="none" stroke="black" cx="516.17" cy="-301.54" rx="25.22" ry="25.22"/>
<ellipse fill="none" stroke="black" cx="516.17" cy="-301.54" rx="29.2" ry="29.2"/>
<text text-anchor="middle" x="516.17" y="-297.84" font-family="Helvetica,Arial,sans-serif" font-size="14.00">DIV</text>
</g>
<!-- KEYWORD -->
<g id="node15" class="node">
<title>KEYWORD</title>
<ellipse fill="none" stroke="black" cx="278.04" cy="-1897.54" rx="57.38" ry="57.38"/>
<ellipse fill="none" stroke="black" cx="278.04" cy="-1897.54" rx="61.39" ry="61.39"/>
<text text-anchor="middle" x="278.04" y="-1893.84" font-family="Helvetica,Arial,sans-serif" font-size="14.00">KEYWORD</text>
</g>
<!-- IDENTIFIER -->
<g id="node16" class="node">
<title>IDENTIFIER</title>
<ellipse fill="none" stroke="black" cx="278.04" cy="-1721.54" rx="59.6" ry="59.6"/>
<ellipse fill="none" stroke="black" cx="278.04" cy="-1721.54" rx="63.59" ry="63.59"/>
<text text-anchor="middle" x="278.04" y="-1717.84" font-family="Helvetica,Arial,sans-serif" font-size="14.00">IDENTIFIER</text>
</g>
<!-- IDENTIFIER&#45;&gt;IDENTIFIER -->
<g id="edge30" class="edge">
<title>IDENTIFIER&#45;&gt;IDENTIFIER</title>
<path fill="none" stroke="black" d="M256.33,-1781.82C258.61,-1794.34 265.85,-1803.34 278.04,-1803.34 286.8,-1803.34 293,-1798.69 296.64,-1791.43"/>
<polygon fill="black" stroke="black" points="300,-1792.42 299.75,-1781.82 293.34,-1790.26 300,-1792.42"/>
<text text-anchor="middle" x="278.04" y="-1807.14" font-family="Helvetica,Arial,sans-serif" font-size="14.00">[a&#45;zA&#45;Z0&#45;9_]</text>
</g>
<!-- CHAR_LITERAL -->
<g id="node17" class="node">
<title>CHAR_LITERAL</title>
<ellipse fill="none" stroke="black" cx="730.16" cy="-245.54" rx="76.88" ry="76.88"/>
<ellipse fill="none" stroke="black" cx="730.16" cy="-245.54" rx="80.89" ry="80.89"/>
<text text-anchor="middle" x="730.16" y="-241.84" font-family="Helvetica,Arial,sans-serif" font-size="14.00">CHAR_LITERAL</text>
</g>
<!-- STR_LITERAL -->
<g id="node18" class="node">
<title>STR_LITERAL</title>
<ellipse fill="none" stroke="black" cx="730.16" cy="-73.54" rx="69.59" ry="69.59"/>
<ellipse fill="none" stroke="black" cx="730.16" cy="-73.54" rx="73.59" ry="73.59"/>
<text text-anchor="middle" x="730.16" y="-69.84" font-family="Helvetica,Arial,sans-serif" font-size="14.00">STR_LITERAL</text>
</g>
<!-- INT_LITERAL -->
<g id="node19" class="node">
<title>INT_LITERAL</title>
<ellipse fill="none" stroke="black" cx="278.04" cy="-1537.54" rx="65.78" ry="65.78"/>
<ellipse fill="none" stroke="black" cx="278.04" cy="-1537.54" rx="69.79" ry="69.79"/>
<text text-anchor="middle" x="278.04" y="-1533.84" font-family="Helvetica,Arial,sans-serif" font-size="14.00">INT_LITERAL</text>
</g>
<!-- INT_LITERAL&#45;&gt;INT_LITERAL -->
<g id="edge32" class="edge">
<title>INT_LITERAL&#45;&gt;INT_LITERAL</title>
<path fill="none" stroke="black" d="M256.69,-1604.04C259.32,-1616.45 266.43,-1625.19 278.04,-1625.19 286.37,-1625.19 292.4,-1620.67 296.1,-1613.53"/>
<polygon fill="black" stroke="black" points="299.42,-1614.64 299.38,-1604.04 292.8,-1612.35 299.42,-1614.64"/>
<text text-anchor="middle" x="278.04" y="-1628.99" font-family="Helvetica,Arial,sans-serif" font-size="14.00">[0&#45;9]</text>
</g>
<!-- FLOAT_LITERAL -->
<g id="node20" class="node">
<title>FLOAT_LITERAL</title>
<ellipse fill="none" stroke="black" cx="516.17" cy="-1694.54" rx="79.1" ry="79.1"/>
<ellipse fill="none" stroke="black" cx="516.17" cy="-1694.54" rx="83.09" ry="83.09"/>
<text text-anchor="middle" x="516.17" y="-1690.84" font-family="Helvetica,Arial,sans-serif" font-size="14.00">FLOAT_LITERAL</text>
</g>
<!-- INT_LITERAL&#45;&gt;FLOAT_LITERAL -->
<g id="edge33" class="edge">
<title>INT_LITERAL&#45;&gt;FLOAT_LITERAL</title>
<path fill="none" stroke="black" d="M336.5,-1575.75C366.83,-1595.91 404.47,-1620.94 437.38,-1642.82"/>
<polygon fill="black" stroke="black" points="435.81,-1645.98 446.08,-1648.6 439.69,-1640.15 435.81,-1645.98"/>
<text text-anchor="middle" x="399.38" y="-1628.34" font-family="Helvetica,Arial,sans-serif" font-size="14.00">[.]</text>
</g>
<!-- FLOAT_LITERAL&#45;&gt;FLOAT_LITERAL -->
<g id="edge34" class="edge">
<title>FLOAT_LITERAL&#45;&gt;FLOAT_LITERAL</title>
<path fill="none" stroke="black" d="M497.9,-1776.01C500.8,-1787.86 506.89,-1795.84 516.17,-1795.84 522.7,-1795.84 527.65,-1791.89 531.02,-1785.43"/>
<polygon fill="black" stroke="black" points="534.31,-1786.61 534.44,-1776.01 527.74,-1784.21 534.31,-1786.61"/>
<text text-anchor="middle" x="516.17" y="-1799.64" font-family="Helvetica,Arial,sans-serif" font-size="14.00">[0&#45;9]</text>
</g>
<!-- OTHER_SYMBOL -->
<g id="node21" class="node">
<title>OTHER_SYMBOL</title>
<ellipse fill="none" stroke="black" cx="278.04" cy="-1362.54" rx="83.69" ry="83.69"/>
<ellipse fill="none" stroke="black" cx="278.04" cy="-1362.54" rx="87.69" ry="87.69"/>
<text text-anchor="middle" x="278.04" y="-1358.84" font-family="Helvetica,Arial,sans-serif" font-size="14.00">OTHER_SYMBOL</text>
</g>
<!-- empty -->
<g id="node22" class="node">
<title>empty</title>
<ellipse fill="none" stroke="black" cx="35.1" cy="-1027.54" rx="35.19" ry="35.19"/>
<text text-anchor="middle" x="35.1" y="-1023.84" font-family="Helvetica,Arial,sans-serif" font-size="14.00">empty</text>
</g>
<!-- empty&#45;&gt;KEYWORD -->
<g id="edge28" class="edge">
<title>empty&#45;&gt;KEYWORD</title>
<path fill="none" stroke="black" d="M37.16,-1062.91C40.88,-1176.78 54.95,-1532.82 88.19,-1642.54 115.42,-1732.4 129.84,-1755.62 190.19,-1827.54 198.72,-1837.71 208.91,-1847.45 219.26,-1856.26"/>
<polygon fill="black" stroke="black" points="217.24,-1859.13 227.17,-1862.81 221.7,-1853.74 217.24,-1859.13"/>
<text text-anchor="middle" x="130.19" y="-1807.34" font-family="Helvetica,Arial,sans-serif" font-size="14.00">keyword</text>
</g>
<!-- empty&#45;&gt;IDENTIFIER -->
<g id="edge29" class="edge">
<title>empty&#45;&gt;IDENTIFIER</title>
<path fill="none" stroke="black" d="M36.12,-1062.84C37.09,-1137.21 44.25,-1314.78 88.19,-1455.54 117.22,-1548.53 128.84,-1573.88 190.19,-1649.54 198.35,-1659.61 208.09,-1669.27 218.05,-1678.08"/>
<polygon fill="black" stroke="black" points="215.82,-1680.78 225.69,-1684.64 220.38,-1675.47 215.82,-1680.78"/>
<text text-anchor="middle" x="130.19" y="-1627.34" font-family="Helvetica,Arial,sans-serif" font-size="14.00">[a&#45;zA&#45;Z_]</text>
</g>
<!-- empty&#45;&gt;INT_LITERAL -->
<g id="edge31" class="edge">
<title>empty&#45;&gt;INT_LITERAL</title>
<path fill="none" stroke="black" d="M39.39,-1062.51C44.99,-1113.26 58.76,-1209.66 88.19,-1286.54 120.11,-1369.9 133.66,-1390.47 190.19,-1459.54 197.99,-1469.07 206.98,-1478.47 216.15,-1487.27"/>
<polygon fill="black" stroke="black" points="213.84,-1489.9 223.53,-1494.18 218.63,-1484.79 213.84,-1489.9"/>
<text text-anchor="middle" x="130.19" y="-1440.34" font-family="Helvetica,Arial,sans-serif" font-size="14.00">[0&#45;9]</text>
</g>
<!-- empty&#45;&gt;OTHER_SYMBOL -->
<g id="edge35" class="edge">
<title>empty&#45;&gt;OTHER_SYMBOL</title>
<path fill="none" stroke="black" d="M43.98,-1061.72C52.01,-1092.14 66.4,-1137.04 88.19,-1171.54 118.78,-1219.96 163.48,-1265.88 201.71,-1300.56"/>
<polygon fill="black" stroke="black" points="199.49,-1303.26 209.27,-1307.34 204.17,-1298.05 199.49,-1303.26"/>
<text text-anchor="middle" x="130.19" y="-1271.34" font-family="Helvetica,Arial,sans-serif" font-size="14.00">otherSymbols</text>
</g>
<!-- _COLON -->
<g id="node23" class="node">
<title>_COLON</title>
<ellipse fill="none" stroke="black" cx="278.04" cy="-1208.54" rx="48.19" ry="48.19"/>
<text text-anchor="middle" x="278.04" y="-1204.84" font-family="Helvetica,Arial,sans-serif" font-size="14.00">_COLON</text>
</g>
<!-- empty&#45;&gt;_COLON -->
<g id="edge1" class="edge">
<title>empty&#45;&gt;_COLON</title>
<path fill="none" stroke="black" d="M55.72,-1056.26C64.76,-1068.29 76.16,-1081.92 88.19,-1092.54 130.22,-1129.62 185.55,-1162.06 225.45,-1183.13"/>
<polygon fill="black" stroke="black" points="223.99,-1186.32 234.48,-1187.85 227.23,-1180.12 223.99,-1186.32"/>
<text text-anchor="middle" x="130.19" y="-1156.34" font-family="Helvetica,Arial,sans-serif" font-size="14.00">[;]</text>
</g>
<!-- _DOT -->
<g id="node24" class="node">
<title>_DOT</title>
<ellipse fill="none" stroke="black" cx="278.04" cy="-1107.54" rx="34.39" ry="34.39"/>
<text text-anchor="middle" x="278.04" y="-1103.84" font-family="Helvetica,Arial,sans-serif" font-size="14.00">_DOT</text>
</g>
<!-- empty&#45;&gt;_DOT -->
<g id="edge4" class="edge">
<title>empty&#45;&gt;_DOT</title>
<path fill="none" stroke="black" d="M68.27,-1039.49C74.84,-1041.87 81.73,-1044.32 88.19,-1046.54 138.44,-1063.82 196.68,-1082.41 235.05,-1094.47"/>
<polygon fill="black" stroke="black" points="234.25,-1097.89 244.84,-1097.55 236.34,-1091.21 234.25,-1097.89"/>
<text text-anchor="middle" x="130.19" y="-1077.34" font-family="Helvetica,Arial,sans-serif" font-size="14.00">[.]</text>
</g>
<!-- _GT -->
<g id="node25" class="node">
<title>_GT</title>
<ellipse fill="none" stroke="black" cx="278.04" cy="-1027.54" rx="27.9" ry="27.9"/>
<text text-anchor="middle" x="278.04" y="-1023.84" font-family="Helvetica,Arial,sans-serif" font-size="14.00">_GT</text>
</g>
<!-- empty&#45;&gt;_GT -->
<g id="edge7" class="edge">
<title>empty&#45;&gt;_GT</title>
<path fill="none" stroke="black" d="M70.36,-1027.54C115.2,-1027.54 193.49,-1027.54 239.77,-1027.54"/>
<polygon fill="black" stroke="black" points="239.97,-1031.04 249.97,-1027.54 239.97,-1024.04 239.97,-1031.04"/>
<text text-anchor="middle" x="130.19" y="-1031.34" font-family="Helvetica,Arial,sans-serif" font-size="14.00">[&gt;]</text>
</g>
<!-- _LT -->
<g id="node26" class="node">
<title>_LT</title>
<ellipse fill="none" stroke="black" cx="278.04" cy="-956.54" rx="24.9" ry="24.9"/>
<text text-anchor="middle" x="278.04" y="-952.84" font-family="Helvetica,Arial,sans-serif" font-size="14.00">_LT</text>
</g>
<!-- empty&#45;&gt;_LT -->
<g id="edge10" class="edge">
<title>empty&#45;&gt;_LT</title>
<path fill="none" stroke="black" d="M68.19,-1015.38C74.78,-1013.01 81.68,-1010.62 88.19,-1008.54 142.23,-991.28 206.03,-974.44 243.92,-964.79"/>
<polygon fill="black" stroke="black" points="245.06,-968.12 253.89,-962.27 243.34,-961.33 245.06,-968.12"/>
<text text-anchor="middle" x="130.19" y="-1012.34" font-family="Helvetica,Arial,sans-serif" font-size="14.00">[&lt;]</text>
</g>
<!-- _EQ -->
<g id="node27" class="node">
<title>_EQ</title>
<ellipse fill="none" stroke="black" cx="278.04" cy="-818.54" rx="28.7" ry="28.7"/>
<text text-anchor="middle" x="278.04" y="-814.84" font-family="Helvetica,Arial,sans-serif" font-size="14.00">_EQ</text>
</g>
<!-- empty&#45;&gt;_EQ -->
<g id="edge13" class="edge">
<title>empty&#45;&gt;_EQ</title>
<path fill="none" stroke="black" d="M56.91,-999.72C65.98,-988.32 77.08,-975.3 88.19,-964.54 139.14,-915.25 206.32,-866.64 245.29,-839.81"/>
<polygon fill="black" stroke="black" points="247.35,-842.65 253.63,-834.11 243.4,-836.87 247.35,-842.65"/>
<text text-anchor="middle" x="130.19" y="-968.34" font-family="Helvetica,Arial,sans-serif" font-size="14.00">[=]</text>
</g>
<!-- _NE -->
<g id="node28" class="node">
<title>_NE</title>
<ellipse fill="none" stroke="black" cx="278.04" cy="-631.54" rx="27.9" ry="27.9"/>
<text text-anchor="middle" x="278.04" y="-627.84" font-family="Helvetica,Arial,sans-serif" font-size="14.00">_NE</text>
</g>
<!-- empty&#45;&gt;_NE -->
<g id="edge16" class="edge">
<title>empty&#45;&gt;_NE</title>
<path fill="none" stroke="black" d="M44.42,-993.55C52.9,-962.06 67.73,-914.5 88.19,-876.54 112.8,-830.91 207.72,-714.73 252.89,-660.39"/>
<polygon fill="black" stroke="black" points="255.72,-662.45 259.43,-652.53 250.34,-657.97 255.72,-662.45"/>
<text text-anchor="middle" x="130.19" y="-880.34" font-family="Helvetica,Arial,sans-serif" font-size="14.00">[!]</text>
</g>
<!-- _DIV -->
<g id="node29" class="node">
<title>_DIV</title>
<ellipse fill="none" stroke="black" cx="278.04" cy="-410.54" rx="30.59" ry="30.59"/>
<text text-anchor="middle" x="278.04" y="-406.84" font-family="Helvetica,Arial,sans-serif" font-size="14.00">_DIV</text>
</g>
<!-- empty&#45;&gt;_DIV -->
<g id="edge19" class="edge">
<title>empty&#45;&gt;_DIV</title>
<path fill="none" stroke="black" d="M38.78,-992.59C43.78,-938.17 56.99,-830.48 88.19,-744.54 131.01,-626.62 213.03,-501.44 253.4,-443.5"/>
<polygon fill="black" stroke="black" points="256.41,-445.31 259.28,-435.12 250.67,-441.3 256.41,-445.31"/>
<text text-anchor="middle" x="130.19" y="-748.34" font-family="Helvetica,Arial,sans-serif" font-size="14.00">[/]</text>
</g>
<!-- openChar -->
<g id="node30" class="node">
<title>openChar</title>
<ellipse fill="none" stroke="black" cx="278.04" cy="-307.54" rx="49.29" ry="49.29"/>
<text text-anchor="middle" x="278.04" y="-303.84" font-family="Helvetica,Arial,sans-serif" font-size="14.00">openChar</text>
</g>
<!-- empty&#45;&gt;openChar -->
<g id="edge22" class="edge">
<title>empty&#45;&gt;openChar</title>
<path fill="none" stroke="black" d="M35.33,-992.23C34.6,-912.4 38.38,-712.72 88.19,-555.54 116.56,-466.04 128.03,-440.91 190.19,-370.54 200.71,-358.63 213.87,-347.67 226.73,-338.33"/>
<polygon fill="black" stroke="black" points="228.94,-341.06 235.11,-332.44 224.92,-335.33 228.94,-341.06"/>
<text text-anchor="middle" x="130.19" y="-559.34" font-family="Helvetica,Arial,sans-serif" font-size="14.00">[&#39;]</text>
</g>
<!-- openStr -->
<g id="node32" class="node">
<title>openStr</title>
<ellipse fill="none" stroke="black" cx="278.04" cy="-188.54" rx="41.69" ry="41.69"/>
<text text-anchor="middle" x="278.04" y="-184.84" font-family="Helvetica,Arial,sans-serif" font-size="14.00">openStr</text>
</g>
<!-- empty&#45;&gt;openStr -->
<g id="edge25" class="edge">
<title>empty&#45;&gt;openStr</title>
<path fill="none" stroke="black" d="M36.17,-992.22C36.82,-873.25 42.51,-488.25 88.19,-374.54 116.62,-303.79 187.35,-246.71 233.72,-215.24"/>
<polygon fill="black" stroke="black" points="235.71,-218.13 242.08,-209.67 231.82,-212.3 235.71,-218.13"/>
<text text-anchor="middle" x="130.19" y="-378.34" font-family="Helvetica,Arial,sans-serif" font-size="14.00">[&#39;&#39;]</text>
</g>
<!-- _COLON&#45;&gt;NAMESPACE -->
<g id="edge2" class="edge">
<title>_COLON&#45;&gt;NAMESPACE</title>
<path fill="none" stroke="black" d="M322.03,-1228.34C337.89,-1237.6 354.7,-1250.03 365.88,-1265.54 384.15,-1290.91 373.53,-1304.04 383.88,-1333.54 401.72,-1384.43 401.95,-1400.37 432.88,-1444.54 439.38,-1453.83 447.09,-1462.91 455.14,-1471.42"/>
<polygon fill="black" stroke="black" points="452.79,-1474.02 462.28,-1478.74 457.8,-1469.13 452.79,-1474.02"/>
<text text-anchor="middle" x="399.38" y="-1418.34" font-family="Helvetica,Arial,sans-serif" font-size="14.00">[;]</text>
</g>
<!-- _COLON&#45;&gt;COLON -->
<g id="edge3" class="edge">
<title>_COLON&#45;&gt;COLON</title>
<path fill="none" stroke="black" d="M320.02,-1233C334.93,-1242.53 351.61,-1253.93 365.88,-1265.54 398.54,-1292.13 400.44,-1305.69 432.88,-1332.54 443.7,-1341.5 455.94,-1350.41 467.62,-1358.41"/>
<polygon fill="black" stroke="black" points="465.74,-1361.36 475.99,-1364.06 469.65,-1355.56 465.74,-1361.36"/>
<text text-anchor="middle" x="399.38" y="-1318.34" font-family="Helvetica,Arial,sans-serif" font-size="14.00">other</text>
</g>
<!-- _DOT&#45;&gt;RANGE -->
<g id="edge5" class="edge">
<title>_DOT&#45;&gt;RANGE</title>
<path fill="none" stroke="black" d="M310.21,-1120.29C327.42,-1128.06 348.73,-1138.92 365.88,-1151.54 400.3,-1176.88 400.15,-1193.05 432.88,-1220.54 443.63,-1229.58 455.85,-1238.52 467.52,-1246.52"/>
<polygon fill="black" stroke="black" points="465.65,-1249.48 475.9,-1252.16 469.56,-1243.67 465.65,-1249.48"/>
<text text-anchor="middle" x="399.38" y="-1205.34" font-family="Helvetica,Arial,sans-serif" font-size="14.00">[.]</text>
</g>
<!-- _DOT&#45;&gt;DOT -->
<g id="edge6" class="edge">
<title>_DOT&#45;&gt;DOT</title>
<path fill="none" stroke="black" d="M311.37,-1117.27C353.74,-1130 428.05,-1152.35 474.28,-1166.25"/>
<polygon fill="black" stroke="black" points="473.39,-1169.64 483.97,-1169.16 475.41,-1162.93 473.39,-1169.64"/>
<text text-anchor="middle" x="399.38" y="-1150.34" font-family="Helvetica,Arial,sans-serif" font-size="14.00">other</text>
</g>
<!-- _GT&#45;&gt;GE -->
<g id="edge8" class="edge">
<title>_GT&#45;&gt;GE</title>
<path fill="none" stroke="black" d="M305.21,-1035.52C347.7,-1048.48 431.74,-1074.1 479.6,-1088.7"/>
<polygon fill="black" stroke="black" points="478.66,-1092.07 489.24,-1091.64 480.7,-1085.37 478.66,-1092.07"/>
<text text-anchor="middle" x="399.38" y="-1071.34" font-family="Helvetica,Arial,sans-serif" font-size="14.00">[=]</text>
</g>
<!-- _GT&#45;&gt;GT -->
<g id="edge9" class="edge">
<title>_GT&#45;&gt;GT</title>
<path fill="none" stroke="black" d="M306.12,-1027.43C348.7,-1027.25 431.31,-1026.9 478.94,-1026.7"/>
<polygon fill="black" stroke="black" points="479.13,-1030.2 489.12,-1026.65 479.1,-1023.2 479.13,-1030.2"/>
<text text-anchor="middle" x="399.38" y="-1030.34" font-family="Helvetica,Arial,sans-serif" font-size="14.00">other</text>
</g>
<!-- _LT&#45;&gt;LE -->
<g id="edge11" class="edge">
<title>_LT&#45;&gt;LE</title>
<path fill="none" stroke="black" d="M302.98,-956.54C344.92,-956.54 431.85,-956.54 480.42,-956.54"/>
<polygon fill="black" stroke="black" points="480.46,-960.04 490.46,-956.54 480.46,-953.04 480.46,-960.04"/>
<text text-anchor="middle" x="399.38" y="-960.34" font-family="Helvetica,Arial,sans-serif" font-size="14.00">[=]</text>
</g>
<!-- _LT&#45;&gt;LT -->
<g id="edge12" class="edge">
<title>_LT&#45;&gt;LT</title>
<path fill="none" stroke="black" d="M302.11,-949.9C344.47,-937.7 434.73,-911.71 483.06,-897.79"/>
<polygon fill="black" stroke="black" points="484.06,-901.15 492.7,-895.02 482.12,-894.42 484.06,-901.15"/>
<text text-anchor="middle" x="399.38" y="-928.34" font-family="Helvetica,Arial,sans-serif" font-size="14.00">other</text>
</g>
<!-- _EQ&#45;&gt;EQ -->
<g id="edge14" class="edge">
<title>_EQ&#45;&gt;EQ</title>
<path fill="none" stroke="black" d="M307.05,-818.54C349.53,-818.54 430.3,-818.54 477.76,-818.54"/>
<polygon fill="black" stroke="black" points="477.92,-822.04 487.92,-818.54 477.92,-815.04 477.92,-822.04"/>
<text text-anchor="middle" x="399.38" y="-822.34" font-family="Helvetica,Arial,sans-serif" font-size="14.00">[=]</text>
</g>
<!-- _EQ&#45;&gt;ASSIGN -->
<g id="edge15" class="edge">
<title>_EQ&#45;&gt;ASSIGN</title>
<path fill="none" stroke="black" d="M304.76,-808.31C342.19,-793.41 412.53,-765.4 461.54,-745.9"/>
<polygon fill="black" stroke="black" points="463.04,-749.06 471.04,-742.11 460.45,-742.56 463.04,-749.06"/>
<text text-anchor="middle" x="399.38" y="-777.34" font-family="Helvetica,Arial,sans-serif" font-size="14.00">other</text>
</g>
<!-- _NE&#45;&gt;NE -->
<g id="edge17" class="edge">
<title>_NE&#45;&gt;NE</title>
<path fill="none" stroke="black" d="M306.12,-631.54C348.7,-631.54 431.31,-631.54 478.94,-631.54"/>
<polygon fill="black" stroke="black" points="479.12,-635.04 489.12,-631.54 479.12,-628.04 479.12,-635.04"/>
<text text-anchor="middle" x="399.38" y="-635.34" font-family="Helvetica,Arial,sans-serif" font-size="14.00">[=]</text>
</g>
<!-- _NE&#45;&gt;INVALID -->
<g id="edge18" class="edge">
<title>_NE&#45;&gt;INVALID</title>
<path fill="none" stroke="black" d="M304.31,-621.59C341.56,-606.92 412.12,-579.13 461.31,-559.76"/>
<polygon fill="black" stroke="black" points="462.82,-562.92 470.84,-556 460.26,-556.41 462.82,-562.92"/>
<text text-anchor="middle" x="399.38" y="-591.34" font-family="Helvetica,Arial,sans-serif" font-size="14.00">other</text>
</g>
<!-- _DIV&#45;&gt;COMMENT -->
<g id="edge20" class="edge">
<title>_DIV&#45;&gt;COMMENT</title>
<path fill="none" stroke="black" d="M308.94,-410.54C342.75,-410.54 398.96,-410.54 444.16,-410.54"/>
<polygon fill="black" stroke="black" points="444.21,-414.04 454.21,-410.54 444.21,-407.04 444.21,-414.04"/>
<text text-anchor="middle" x="399.38" y="-414.34" font-family="Helvetica,Arial,sans-serif" font-size="14.00">[/]</text>
</g>
<!-- _DIV&#45;&gt;DIV -->
<g id="edge21" class="edge">
<title>_DIV&#45;&gt;DIV</title>
<path fill="none" stroke="black" d="M306.12,-398.04C348.96,-378.26 432.35,-339.77 479.84,-317.85"/>
<polygon fill="black" stroke="black" points="481.51,-320.94 489.12,-313.57 478.57,-314.58 481.51,-320.94"/>
<text text-anchor="middle" x="399.38" y="-362.34" font-family="Helvetica,Arial,sans-serif" font-size="14.00">other</text>
</g>
<!-- _char -->
<g id="node31" class="node">
<title>_char</title>
<ellipse fill="none" stroke="black" cx="516.17" cy="-221.54" rx="32.49" ry="32.49"/>
<text text-anchor="middle" x="516.17" y="-217.84" font-family="Helvetica,Arial,sans-serif" font-size="14.00">_char</text>
</g>
<!-- openChar&#45;&gt;_char -->
<g id="edge23" class="edge">
<title>openChar&#45;&gt;_char</title>
<path fill="none" stroke="black" d="M323.65,-288.41C342.17,-280.69 363.94,-271.89 383.88,-264.54 414.31,-253.34 449.23,-241.97 475.4,-233.74"/>
<polygon fill="black" stroke="black" points="476.47,-237.07 484.97,-230.75 474.39,-230.39 476.47,-237.07"/>
<text text-anchor="middle" x="399.38" y="-268.34" font-family="Helvetica,Arial,sans-serif" font-size="14.00">.</text>
</g>
<!-- _char&#45;&gt;CHAR_LITERAL -->
<g id="edge24" class="edge">
<title>_char&#45;&gt;CHAR_LITERAL</title>
<path fill="none" stroke="black" d="M548.91,-225.14C572.88,-227.85 607.03,-231.72 639.18,-235.36"/>
<polygon fill="black" stroke="black" points="639.2,-238.88 649.53,-236.53 639.98,-231.93 639.2,-238.88"/>
<text text-anchor="middle" x="624.46" y="-237.34" font-family="Helvetica,Arial,sans-serif" font-size="14.00">[&#39;]</text>
</g>
<!-- _str -->
<g id="node33" class="node">
<title>_str</title>
<ellipse fill="none" stroke="black" cx="516.17" cy="-121.54" rx="25.2" ry="25.2"/>
<text text-anchor="middle" x="516.17" y="-117.84" font-family="Helvetica,Arial,sans-serif" font-size="14.00">_str</text>
</g>
<!-- openStr&#45;&gt;_str -->
<g id="edge26" class="edge">
<title>openStr&#45;&gt;_str</title>
<path fill="none" stroke="black" d="M318.29,-177.4C364.07,-164.42 438.92,-143.18 481.94,-130.97"/>
<polygon fill="black" stroke="black" points="482.97,-134.32 491.64,-128.22 481.06,-127.58 482.97,-134.32"/>
<text text-anchor="middle" x="399.38" y="-160.34" font-family="Helvetica,Arial,sans-serif" font-size="14.00">.</text>
</g>
<!-- _str&#45;&gt;STR_LITERAL -->
<g id="edge27" class="edge">
<title>_str&#45;&gt;STR_LITERAL</title>
<path fill="none" stroke="black" d="M541.08,-116.13C567.02,-110.26 609.87,-100.55 648.12,-91.89"/>
<polygon fill="black" stroke="black" points="649.27,-95.22 658.25,-89.6 647.72,-88.39 649.27,-95.22"/>
<text text-anchor="middle" x="624.46" y="-101.34" font-family="Helvetica,Arial,sans-serif" font-size="14.00">[&#39;&#39;]</text>
</g>
</g>
</svg>
